<svg
  xmlns="http://www.w3.org/2000/svg"
  width="5184"
  viewBox="0 0 5184 2592"
  height="2592"
  version="1.0"
><defs><clipPath id="a"><path
        d="M 1 2331 L 2514 2331 L 2514 2591 L 1 2591 Z M 1 2331"
      /></clipPath><clipPath id="b"><path
        d="M 2450 2354 L 5183 2354 L 5183 2591 L 2450 2591 Z M 2450 2354"
      /></clipPath></defs><g clip-path="url(#a)"><path
      fill="#FFB45E"
      d="M 2512.992188 2451.855469 C 2461.707031 2417.132812 2399.375 2397.402344 2332.308594 2397.402344 C 2233.683594 2397.402344 2145.3125 2441.597656 2085.347656 2510.257812 C 2042.742188 2489.738281 1994.613281 2477.902344 1944.117188 2477.902344 C 1903.878906 2477.902344 1865.214844 2485.003906 1829.710938 2498.417969 C 1770.535156 2417.132812 1674.273438 2364.257812 1566.179688 2364.257812 C 1458.875 2364.257812 1363.40625 2416.34375 1304.230469 2496.050781 C 1245.054688 2434.496094 1162.207031 2396.613281 1069.894531 2396.613281 C 997.304688 2396.613281 930.238281 2420.289062 875.796875 2460.539062 C 810.308594 2382.410156 708.527344 2331.898438 594.910156 2331.898438 L 575.972656 2331.898438 C 486.816406 2331.898438 405.546875 2368.203125 346.371094 2425.8125 C 337.695312 2432.917969 329.804688 2440.808594 322.703125 2449.488281 C 299.03125 2443.964844 274.574219 2441.597656 250.113281 2441.597656 C 180.679688 2441.597656 116.769531 2463.695312 63.90625 2500.785156 C 29.191406 2451.855469 -18.9375 2413.976562 -74.957031 2390.300781 L -74.957031 2605.75 L -75.746094 2605.75 L -75.746094 3673.882812 L 2512.992188 3673.882812 L 2512.992188 2606.539062 L 2513.78125 2606.539062 Z M 2512.992188 2451.855469"
    /></g><g clip-path="url(#b)"><path
      fill="#FFB45E"
      d="M 5279.851562 2485.472656 C 5223.796875 2447.523438 5155.671875 2425.960938 5082.371094 2425.960938 C 4974.578125 2425.960938 4877.992188 2474.257812 4812.453125 2549.296875 C 4765.882812 2526.871094 4713.28125 2513.933594 4658.089844 2513.933594 C 4614.109375 2513.933594 4571.851562 2521.695312 4533.046875 2536.359375 C 4468.371094 2447.523438 4363.160156 2389.738281 4245.019531 2389.738281 C 4127.738281 2389.738281 4023.390625 2446.660156 3958.714844 2533.769531 C 3894.039062 2466.496094 3803.488281 2425.097656 3702.59375 2425.097656 C 3623.253906 2425.097656 3549.953125 2450.972656 3490.453125 2494.957031 C 3418.875 2409.574219 3307.632812 2354.375 3183.453125 2354.375 L 3162.753906 2354.375 C 3065.308594 2354.375 2976.484375 2394.050781 2911.808594 2457.011719 C 2902.320312 2464.773438 2893.699219 2473.398438 2885.9375 2482.882812 C 2860.066406 2476.847656 2833.332031 2474.257812 2806.597656 2474.257812 C 2730.710938 2474.257812 2660.859375 2498.410156 2603.082031 2538.945312 C 2565.136719 2485.472656 2512.535156 2444.074219 2451.304688 2418.199219 L 2451.304688 2653.65625 L 2450.445312 2653.65625 L 2450.445312 3829.054688 L 5279.851562 3829.054688 L 5279.851562 2654.515625 L 5280.714844 2654.515625 Z M 5279.851562 2485.472656"
    /></g></svg>
