<svg xmlns="http://www.w3.org/2000/svg" width="5184" viewBox="0 0 5184 2592" height="2592" version="1.0"><defs><clipPath id="a"><path d="M 1 1553 L 5183 1553 L 5183 2591 L 1 2591 Z M 1 1553"/></clipPath><clipPath id="b"><path d="M 1 2019 L 2591 2019 L 2591 2591 L 1 2591 Z M 1 2019"/></clipPath><clipPath id="c"><path d="M 2585 2074 L 5175 2074 L 5175 2591 L 2585 2591 Z M 2585 2074"/></clipPath></defs><g clip-path="url(#a)"><path fill="#FFACB7" d="M 5275.210938 1797.671875 C 5170.722656 1726.945312 5043.730469 1686.761719 4907.09375 1686.761719 C 4706.15625 1686.761719 4526.117188 1776.773438 4403.945312 1916.613281 C 4317.140625 1874.824219 4219.082031 1850.714844 4116.203125 1850.714844 C 4034.21875 1850.714844 3955.453125 1865.179688 3883.117188 1892.503906 C 3762.554688 1726.945312 3566.4375 1619.253906 3346.210938 1619.253906 C 3127.589844 1619.253906 2933.082031 1725.339844 2812.519531 1887.683594 C 2691.957031 1762.308594 2523.171875 1685.15625 2335.09375 1685.15625 C 2187.203125 1685.15625 2050.566406 1733.375 1939.648438 1815.351562 C 1806.226562 1656.222656 1598.859375 1553.351562 1367.378906 1553.351562 L 1328.796875 1553.351562 C 1147.152344 1553.351562 981.578125 1627.289062 861.015625 1744.628906 C 843.332031 1759.09375 827.257812 1775.167969 812.789062 1792.847656 C 764.566406 1781.597656 714.734375 1776.773438 664.902344 1776.773438 C 523.441406 1776.773438 393.234375 1821.78125 285.53125 1897.324219 C 214.800781 1797.671875 116.742188 1720.515625 2.609375 1672.296875 L 2.609375 2111.105469 L 1.003906 2111.105469 L 1.003906 4456.230469 L 5275.210938 4456.230469 L 5275.210938 2112.710938 L 5276.816406 2112.710938 Z M 5275.210938 1797.671875"/></g><g clip-path="url(#b)"><path fill="#FCA5A5" d="M 2589.75 2139.828125 C 2538.464844 2105.105469 2476.132812 2085.378906 2409.066406 2085.378906 C 2310.441406 2085.378906 2222.070312 2129.570312 2162.105469 2198.226562 C 2119.5 2177.707031 2071.367188 2165.871094 2020.871094 2165.871094 C 1980.632812 2165.871094 1941.972656 2172.972656 1906.464844 2186.386719 C 1847.289062 2105.105469 1751.03125 2052.234375 1642.933594 2052.234375 C 1535.628906 2052.234375 1440.160156 2104.316406 1380.984375 2184.019531 C 1321.808594 2122.46875 1238.960938 2084.589844 1146.644531 2084.589844 C 1074.058594 2084.589844 1006.992188 2108.261719 952.550781 2148.507812 C 887.0625 2070.382812 785.277344 2019.878906 671.660156 2019.878906 L 652.722656 2019.878906 C 563.566406 2019.878906 482.296875 2056.179688 423.121094 2113.785156 C 414.441406 2120.890625 406.550781 2128.78125 399.449219 2137.460938 C 375.78125 2131.9375 351.320312 2129.570312 326.863281 2129.570312 C 257.429688 2129.570312 193.519531 2151.667969 140.65625 2188.757812 C 105.9375 2139.828125 57.808594 2101.949219 1.789062 2078.273438 L 1.789062 2293.710938 L 1 2293.710938 L 1 3445.078125 L 2589.75 3445.078125 L 2589.75 2294.5 L 2590.539062 2294.5 Z M 2589.75 2139.828125"/></g><g clip-path="url(#c)"><path fill="#FCA5A5" d="M 5174.171875 2194.429688 C 5122.886719 2159.707031 5060.554688 2139.980469 4993.488281 2139.980469 C 4894.863281 2139.980469 4806.492188 2184.171875 4746.527344 2252.828125 C 4703.921875 2232.308594 4655.789062 2220.472656 4605.292969 2220.472656 C 4565.054688 2220.472656 4526.394531 2227.574219 4490.886719 2240.988281 C 4431.710938 2159.707031 4335.453125 2106.835938 4227.355469 2106.835938 C 4120.050781 2106.835938 4024.582031 2158.917969 3965.40625 2238.621094 C 3906.230469 2177.070312 3823.382812 2139.191406 3731.066406 2139.191406 C 3658.480469 2139.191406 3591.414062 2162.863281 3536.972656 2203.109375 C 3471.484375 2124.984375 3369.699219 2074.480469 3256.082031 2074.480469 L 3237.144531 2074.480469 C 3147.988281 2074.480469 3066.71875 2110.78125 3007.542969 2168.386719 C 2998.863281 2175.492188 2990.972656 2183.382812 2983.871094 2192.0625 C 2960.203125 2186.539062 2935.742188 2184.171875 2911.285156 2184.171875 C 2841.851562 2184.171875 2777.941406 2206.265625 2725.078125 2243.355469 C 2690.359375 2194.429688 2642.230469 2156.550781 2586.210938 2132.875 L 2586.210938 2348.3125 L 2585.421875 2348.3125 L 2585.421875 3499.679688 L 5174.171875 3499.679688 L 5174.171875 2349.101562 L 5174.960938 2349.101562 Z M 5174.171875 2194.429688"/></g></svg>