<svg
  xmlns="http://www.w3.org/2000/svg"
  width="5184"
  viewBox="0 0 5184 2592"
  height="2592"
  version="1.0"
><defs><clipPath id="a"><path
        d="M 1 1767 L 3438 1767 L 3438 2591 L 1 2591 Z M 1 1767"
      /></clipPath><clipPath id="b"><path
        d="M 1694 1767 L 5183 1767 L 5183 2591 L 1694 2591 Z M 1694 1767"
      /></clipPath></defs><g clip-path="url(#a)"><path
      fill="#FFC35E"
      d="M 3435.746094 2014.859375 C 3330.171875 1943.390625 3201.863281 1902.785156 3063.808594 1902.785156 C 2860.785156 1902.785156 2678.875 1993.742188 2555.4375 2135.050781 C 2467.734375 2092.820312 2368.65625 2068.457031 2264.710938 2068.457031 C 2181.875 2068.457031 2102.292969 2083.074219 2029.203125 2110.6875 C 1907.390625 1943.390625 1709.238281 1834.566406 1486.726562 1834.566406 C 1265.839844 1834.566406 1069.3125 1941.765625 947.5 2105.816406 C 825.683594 1979.125 655.148438 1901.160156 465.117188 1901.160156 C 315.691406 1901.160156 177.636719 1949.886719 65.570312 2032.722656 C -69.238281 1871.925781 -278.757812 1767.972656 -512.640625 1767.972656 L -551.621094 1767.972656 C -735.152344 1767.972656 -902.441406 1842.6875 -1024.257812 1961.257812 C -1042.121094 1975.875 -1058.363281 1992.117188 -1072.980469 2009.984375 C -1121.707031 1998.617188 -1172.058594 1993.742188 -1222.40625 1993.742188 C -1365.335938 1993.742188 -1496.894531 2039.222656 -1605.714844 2115.558594 C -1677.175781 2014.859375 -1776.253906 1936.894531 -1891.570312 1888.167969 L -1891.570312 2331.582031 L -1893.191406 2331.582031 L -1893.191406 4529.910156 L 3435.746094 4529.910156 L 3435.746094 2333.207031 L 3437.367188 2333.207031 Z M 3435.746094 2014.859375"
    /></g><g clip-path="url(#b)"><path
      fill="#FFC35E"
      d="M 7023.242188 2014.859375 C 6917.667969 1943.390625 6789.359375 1902.785156 6651.304688 1902.785156 C 6448.28125 1902.785156 6266.371094 1993.742188 6142.933594 2135.050781 C 6055.230469 2092.820312 5956.152344 2068.457031 5852.207031 2068.457031 C 5769.375 2068.457031 5689.789062 2083.074219 5616.699219 2110.6875 C 5494.886719 1943.390625 5296.738281 1834.566406 5074.222656 1834.566406 C 4853.335938 1834.566406 4656.808594 1941.765625 4534.996094 2105.816406 C 4413.183594 1979.125 4242.644531 1901.160156 4052.613281 1901.160156 C 3903.191406 1901.160156 3765.132812 1949.886719 3653.066406 2032.722656 C 3518.257812 1871.925781 3308.738281 1767.972656 3074.859375 1767.972656 L 3035.878906 1767.972656 C 2852.34375 1767.972656 2685.054688 1842.6875 2563.242188 1961.257812 C 2545.375 1975.875 2529.132812 1992.117188 2514.515625 2009.984375 C 2465.789062 1998.617188 2415.441406 1993.742188 2365.089844 1993.742188 C 2222.164062 1993.742188 2090.605469 2039.222656 1981.785156 2115.558594 C 1910.320312 2014.859375 1811.246094 1936.894531 1695.929688 1888.167969 L 1695.929688 2331.582031 L 1694.304688 2331.582031 L 1694.304688 4529.910156 L 7023.242188 4529.910156 L 7023.242188 2333.207031 L 7024.867188 2333.207031 Z M 7023.242188 2014.859375"
    /></g></svg>
