<svg xmlns="http://www.w3.org/2000/svg" xmlns:xlink="http://www.w3.org/1999/xlink" viewBox="0 0 314.57 384.16"><defs><style>.cls-1{fill:none;}.cls-2{fill:#f7ca89;}.cls-3{clip-path:url(#clip-path);}.cls-4{fill:#c9915f;}.cls-5{fill:#b27a4d;}.cls-6{fill:#e2aeb7;}.cls-7{fill:#ad7344;}.cls-8{fill:#f2f2f2;}.cls-9{clip-path:url(#clip-path-2);}.cls-10{fill:#595050;}.cls-11{fill:#fff;}.cls-12{clip-path:url(#clip-path-3);}.cls-13{fill:#605757;}.cls-14{fill:#a2a39f;}.cls-15{clip-path:url(#clip-path-4);}.cls-16{fill:#f8fce6;}.cls-17{clip-path:url(#clip-path-5);}.cls-18{fill:#ffc5ab;}.cls-19{fill:#abddb8;}.cls-20{fill:#b6daf2;}.cls-21{fill:#cec284;}</style><clipPath id="clip-path" transform="translate(6.79 19.72)"><path class="cls-1" d="M248.36,161.47c-2.88-5.77-6.26-11.36-8-17.57-3.81-13.69.79-28.84-1.05-42.63a23.65,23.65,0,0,0-.32-7.5,89.29,89.29,0,0,0,7.8-35.58,3.54,3.54,0,0,0-.47-2.16c-.67-.89-2-.93-3.08-.79-5.53.72-10.38,4-14.59,7.64a75.63,75.63,0,0,0-8,8.05,95.72,95.72,0,0,0-22.51-3c-.3-5.68-1.39-11.2-4.41-15.95-.43-.68-1-1.41-1.83-1.42a2.45,2.45,0,0,0-1.23.44c-5.08,3-8.67,8.13-10.65,13.68a45.78,45.78,0,0,0-2.37,14.1c-.18.68-.35,1.37-.51,2.06-2.52,10.74-4.69,22.21-1,32.6a30.59,30.59,0,0,0,1.77,4c-5.71,5-10.2,11.29-14.54,17.54-11.09,16-21.76,32.57-27.76,51.06-3.72,11.44-5.6,23.46-9.93,34.68-7.62,19.73-22.69,36.69-26,57.58-.57,3.59-.57,7.76,2.08,10.24,1.8,1.69,4.39,2.16,6.83,2.56l35.8,5.79c6,1,12.33,1.94,18.15.08s10.93-6.39,17-6c3.06.21,5.87,1.7,8.71,2.86.52.22,1,.42,1.58.61a90.35,90.35,0,0,1-10.2,5.77c-17.21,8.23-38.56,9.93-55,.17-4.21-2.5-8.37-5.81-13.27-5.88a6.72,6.72,0,0,0-3.13.61c-3.3,1.66-3.53,6.4-2.1,9.81,2.8,6.69,8.39,11.75,16.7,15.5,5.35,2.41,12.85,3.81,18.66,4.58,10.41,1.38,24.46,1.62,34.51-1.41,18.34-5.53,31.68-14.08,46.47-28.17,4.25-2,9-7.33,12.42-10.6a63.38,63.38,0,0,0,10.89-14.88C264.2,237,265.14,195.13,248.36,161.47Z"/></clipPath><clipPath id="clip-path-2" transform="translate(6.79 19.72)"><path class="cls-1" d="M149.69,151.79c-1.59-9.75-5.66-19-10.71-27.44-3.15-5.29-6.9-10.52-12.32-13.44a19.18,19.18,0,0,0-6.76-2.11c.61-3.58.94-7.22,1.26-10.85l-11.76.15c-3.49,4.75-9.79,6.58-15.69,6.78S81.92,104,76,104.24c-9.53.42-18.57,4.44-26.68,9.47-4.18,2.58-8.28,5.55-11,9.66s-3.78,9.56-1.66,14a8.27,8.27,0,0,0,4,4.12,10.71,10.71,0,0,0,5.45.49c8.82-1,16.8-5.85,25.56-7.25,11.84-1.9,25,2.4,35.35-3.7a22,22,0,0,0,6.13-5.51c3.6,4.32,7.07,8.67,8.54,14,1.79,6.51.25,13.43-1.29,20-1.75,7.45-3.66,15.24-8.76,20.94-3.43,3.83-8,6.35-12.42,9l-1.37-2.4-26.59,3.22a48.67,48.67,0,0,1-10.84.51c-11-1.13-19.72-9.36-29.53-14.46-3.37-1.75-7.07-3.18-10.87-2.93s-7.65,2.54-8.73,6.19c-.87,2.91.15,6,1.43,8.81,6.17,13.25,18.57,22.79,32,28.5s28.07,8,42.52,10.32c4,.64,8.16,1.27,12.15.43a17.21,17.21,0,0,0,13.2-14.75l-3.12-5.44a107.08,107.08,0,0,0,17-8c7.76-4.63,14.77-10.88,19-18.87C150.26,171.89,151.28,161.54,149.69,151.79Z"/></clipPath><clipPath id="clip-path-3" transform="translate(6.79 19.72)"><path class="cls-1" d="M181.5,73.26c1-10.69,4.05-21.33,2.95-32,3.52-8.83,6.48-18,5.83-27.38A22.31,22.31,0,0,0,186.37,2a4.53,4.53,0,0,0-2.6-1.95A5,5,0,0,0,181,.6a60.54,60.54,0,0,0-21.3,15.12c-9.45-.85-21.22.17-30.55,4.23-3.9-6.29-8.51-12.34-15.32-14.9a1.93,1.93,0,0,0-1.69,0,2,2,0,0,0-.64,1c-3.14,9.35-.78,19.53,1.87,29.07a61.19,61.19,0,0,0-4.2,12.14,34,34,0,0,0-1.27,9.54c.21,4.82,2.14,9.42,4.49,13.64a69.7,69.7,0,0,0,6.94,10.23c-9.88,8.59-14.69,21.67-17,34.56-.56,3.1-1.07,6.41-3.16,8.78-3.3,3.75-9,3.63-14,4.15-15.62,1.62-28.9,12-39.72,23.42-3.88,4.09-7.77,8.8-8.09,14.43a7,7,0,0,0,.46,3.21A6.78,6.78,0,0,0,43,172.84c6.42,1.16,12.51-2.8,18.34-5.74,6.05-3,13.8-10.14,20.41-11.66,10-2.31,19.65-4.57,28.92-7.43l-11.9,17.4c-5.35,7.8-10.83,16-12.36,25.29s2.11,20.24,10.76,24.08c-10.57-3.89-22.16.44-32.87,3.93s-23.49,5.82-32.39-1.09c-4.12-3.2-6.71-7.93-10.13-11.87s-8.48-7.29-13.57-6.13C2.62,200.9-.55,207.39.08,213.1s4.1,10.69,7.8,15.09c9.57,11.37,22,24,36.81,25.14,13.45,1,25.53-6.16,34.15-2.92,3.61,1.36,8,4.32,12.46,7.46-1.46.38-2.94.7-4.45.95-5.75.95-11.61.84-17.43.92-11.21.15-22.4,1-33.54,2.18-10.37,1.08-21.34,2.69-29.3,9.41-4.9,4.13-8.3,11.36-5.14,16.94,2.12,3.77,6.67,5.61,11,5.73s8.53-1.19,12.69-2.36a217.77,217.77,0,0,1,40.43-7.38c17.94-1.55,36.2-.89,53.67-5.24,14.67-3.65,29.16-11.72,37.14-24.2l1.18-1.19c6.83-7.13,14.43-15.81,19.19-24.46A144.93,144.93,0,0,0,191.52,188C199.4,150.2,177.74,111.71,181.5,73.26Z"/></clipPath><clipPath id="clip-path-4" transform="translate(6.79 19.72)"><path class="cls-1" d="M203.2,135.65c-8.46,5.36-10.43,9.55-13.88,14.13a10.59,10.59,0,0,1-8.76,5.22l-31.13,5.35c-6.33,1.09-13,2.36-17.75,6.73s-6.05,13-1,16.9c2.44,1.89,5.68,2.28,8.75,2.56q14.5,1.31,29.07,1.29c17.65,0,36.94-2.19,49.43-14.67"/></clipPath><clipPath id="clip-path-5" transform="translate(6.79 19.72)"><path class="cls-1" d="M53.62,176.48c-5.9,5.45-10.73,33-12.72,41.94-9.44,42.18-5.06,38.06-14.49,80.23-.53,2.37-1.07,4.84-.52,7.21,1,4.31,5.37,7.13,9.74,7.83s8.8-.22,13.17-.85c42.5-6.14,83.28,15.68,124.28,28.45a303.16,303.16,0,0,0,94,13.66c3,0,6-.13,8.74-1.26,8-3.28,10.16-13.33,11.65-21.84,8.46-48.07,16.24-47.26,20.09-95.92.41-5.18.57-10.62-1.69-15.3-4.86-10-18-12.07-29.14-12.86-20.23-1.44-40.49-3.05-60.45-6.62-40.47-7.25-79.43-22.52-120.34-26.59C88.92,173.87,59.51,171,53.62,176.48Z"/></clipPath></defs><g id="Layer_2" data-name="Layer 2"><g id="레이어_1" data-name="레이어 1"><path class="cls-2" d="M248.36,161.47c-2.88-5.77-6.26-11.36-8-17.57-3.81-13.69.79-28.84-1.05-42.63a23.65,23.65,0,0,0-.32-7.5,89.29,89.29,0,0,0,7.8-35.58,3.54,3.54,0,0,0-.47-2.16c-.67-.89-2-.93-3.08-.79-5.53.72-10.38,4-14.59,7.64a75.63,75.63,0,0,0-8,8.05,95.72,95.72,0,0,0-22.51-3c-.3-5.68-1.39-11.2-4.41-15.95-.43-.68-1-1.41-1.83-1.42a2.45,2.45,0,0,0-1.23.44c-5.08,3-8.67,8.13-10.65,13.68a45.78,45.78,0,0,0-2.37,14.1c-.18.68-.35,1.37-.51,2.06-2.52,10.74-4.69,22.21-1,32.6a30.59,30.59,0,0,0,1.77,4c-5.71,5-10.2,11.29-14.54,17.54-11.09,16-21.76,32.57-27.76,51.06-3.72,11.44-5.6,23.46-9.93,34.68-7.62,19.73-22.69,36.69-26,57.58-.57,3.59-.57,7.76,2.08,10.24,1.8,1.69,4.39,2.16,6.83,2.56l35.8,5.79c6,1,12.33,1.94,18.15.08s10.93-6.39,17-6c3.06.21,5.87,1.7,8.71,2.86.52.22,1,.42,1.58.61a90.35,90.35,0,0,1-10.2,5.77c-17.21,8.23-38.56,9.93-55,.17-4.21-2.5-8.37-5.81-13.27-5.88a6.72,6.72,0,0,0-3.13.61c-3.3,1.66-3.53,6.4-2.1,9.81,2.8,6.69,8.39,11.75,16.7,15.5,5.35,2.41,12.85,3.81,18.66,4.58,10.41,1.38,24.46,1.62,34.51-1.41,18.34-5.53,31.68-14.08,46.47-28.17,4.25-2,9-7.33,12.42-10.6a63.38,63.38,0,0,0,10.89-14.88C264.2,237,265.14,195.13,248.36,161.47Z" transform="translate(6.79 19.72)"/><g class="cls-3"><path class="cls-4" d="M177.46,104.48c2.58-.72,4.52-2.9,5.78-5.26s2-5,3-7.43a28.87,28.87,0,0,1,10.58-12.63,3.78,3.78,0,0,1,2.44-.85c1.43.17,2.23,1.76,2.52,3.18.59,2.92.16,5.93.25,8.9s.88,6.17,3.23,8c1.89,1.47,4.42,1.75,6.62,2.69a11.92,11.92,0,0,1,7.06,9.61c.22,2.25,0,5,1.84,6.3,1.22.86,2.89.7,4.27,1.29s2.12,2.9.71,3.4a43.56,43.56,0,0,1,11.35,1.6,8.9,8.9,0,0,1,3.65,1.71,3.59,3.59,0,0,1,1.24,3.64c5.35-18.13,10.72-36.28,14.58-54.78,1.44-6.88,2.59-14.41-.7-20.62-2.07-3.89-5.67-6.76-9.53-8.89-8.87-4.89-19.28-6.3-29.4-6a97.44,97.44,0,0,0-32.87,6.63c-5.47,2.13-10.85,4.84-15,9a40,40,0,0,0-7.75,12.27c-4.44,10.16-6.75,21.53-4.69,32.42.62,3.32,1.72,6.69,4,9.17s6.06,3.86,9.2,2.59" transform="translate(6.79 19.72)"/><path class="cls-4" d="M287,164.73c-4-27.29-24.23-51.56-50.34-60.48l-6,16.6,3.87,4a51.28,51.28,0,0,0-19.4,4.62c.84-.36,1.53,1,1,1.77a3.47,3.47,0,0,1-2.42,1.11c-15.33,2.8-26.74,16.21-32.9,30.53-1.85,4.33-3.38,9-2.75,13.67s4,9.24,8.67,9.89c3.49.49,6.86-1.22,10.29-2.08s7.83-.4,9.36,2.77l20.75.44c-2.56,3.77,3.25,8.3,2.7,12.82a9.35,9.35,0,0,1-2.16,4.29l-8.3,11.17c2-.41,3.91,1.68,4,3.76s-.93,4-2,5.79a64,64,0,0,1-27.51,23.85c1-.11,1.53,1.39,1,2.22a3.57,3.57,0,0,1-2.71,1.16c-6.6.6-13.61-2.54-19.75,0-12,4.91-12.32,9.1-17.42,12.91-8.43,6.31-17.18,5.07-27.53,7-4,.75-8.93,3.56-7.72,7.43.78,2.5,3.74,3.48,6.29,4.1,8.72,2.09,17.78,4.2,26.55,2.34,5.12-1.08,9.87-3.46,14.9-4.89,11.63-3.31,24-1.36,36,.6a5.64,5.64,0,0,1,3,1.14c2,1.87.34,5.13-1.33,7.28-1.42,1.81-6.94,1.61-8.36,3.42-8.49.32-10.93-1-16.35,2.92-7.67,5.5-13.35,7.14-22.78,7.59-10.55-4.57-39.56-8.26-41.46-9.63-4.47-3.24-12.77,1.8-17.55,4.56-3.18,1.83-4.63,5.86-4.28,9.52s2.17,7,4.25,10.05c7.06,10.3,17.35,18.15,28.71,23.32a59.08,59.08,0,0,0,22.39,5.7c7.79.25,15.51-1.51,23-3.64,17.44-4.95,34.68-12.2,48-24.53,6-5.61,11.14-12.15,16.19-18.67.54-.69,1.08-1.39,1.61-2.09A58.86,58.86,0,0,0,250,289.67c9.6-10.09,15.38-23.16,20.23-36.21a363,363,0,0,0,12.58-41.28C286.57,196.65,289.29,180.54,287,164.73Z" transform="translate(6.79 19.72)"/><path class="cls-5" d="M260.09,187.79A31.86,31.86,0,0,1,240.63,198c-1.52.2-3.16.32-4.38,1.26s-1.65,3.06-.39,4a3.41,3.41,0,0,0,1.78.47,31.67,31.67,0,0,0,8.74-.59c1.14-.23,2.5-.48,3.34.33s.47,2.72-.63,3.51a8.3,8.3,0,0,1-3.88,1.09,32.24,32.24,0,0,0-13.05,4.66c-.84.52-1.73,1.22-1.78,2.21-.09,1.57,1.9,2.32,3.47,2.49,11.58,1.28,23.12-2.1,34.29-5.45,1.53,2.29.63,5.56-1.31,7.52s-4.65,2.9-7.28,3.73C251,225.9,241.93,228,233,227a7.08,7.08,0,0,0-3.11.09,2.13,2.13,0,0,0-1.48,2.43c.31,1,1.41,1.34,2.37,1.59a96.59,96.59,0,0,0,32.83,2.73c1.37-.12,3.19,0,3.54,1.34a2.51,2.51,0,0,1-.47,1.89c-2.13,3.42-6.4,4.7-10.3,5.71-12.67,3.3-25.58,6.62-38.66,6-2.46-.11-5.23-.26-7,1.42,4.71,4,11.2,5.13,17.36,5.77a184,184,0,0,0,21.77,1c3.33-.05,7.41.25,8.83,3.27,1.28,2.73-.78,6.08-3.53,7.3s-5.92.89-8.92.55l-15.6-1.81c.68,2.82,3.17,4.89,5.86,6s5.6,1.45,8.43,2.11a10.26,10.26,0,0,1,4.61,2.05,4.24,4.24,0,0,1,1.31,4.6c-.69,1.59-2.52,2.34-4.21,2.7-6.54,1.37-13.31-.72-19.35-3.56s-11.76-6.47-18.13-8.45c-.9,1.34.27,3.08,1.42,4.21,3.62,3.54,7.74,6.57,11.13,10.33s6.1,8.5,6,13.56c-5.69,1.66-10-8.12-15.7-6.51-3.26.92-4.35,5.21-3.49,8.5s3,6.11,4,9.35c.3.95.42,2.18-.4,2.75a2.16,2.16,0,0,1-2,0c-4.65-1.8-6.62-8.62-11.6-8.86a2.87,2.87,0,0,0-2.37.84c-.75.9-.56,2.24-.24,3.36,1,3.5,3,6.86,2.72,10.49-.08,1.14-.59,2.47-1.72,2.66s-1.84-.64-2.51-1.38l-7.51-8.25,3.38,12.34a5.26,5.26,0,0,0,1,2.24,4.28,4.28,0,0,0,2.66,1.15c6,.82,11.48-3.08,16.24-6.79,18.46-14.41,36.89-29.47,50.34-48.65S282,229.83,277.4,206.85c-1.25-6.24-3.68-12.68-8.84-16.4a9.38,9.38,0,0,0-6-2,5.26,5.26,0,0,0-4.79,3.7" transform="translate(6.79 19.72)"/><path class="cls-5" d="M180,295.72a14.87,14.87,0,0,1,12.24,13.9,60,60,0,0,0-13.47-10.18A9.22,9.22,0,0,0,174.4,298a3.55,3.55,0,0,0-3.54,2.53c-.27,1.45.7,2.82,1.58,4,5.42,7.22,9.92,15.39,11.25,24.31a3.94,3.94,0,0,1-.46,3.15,3.24,3.24,0,0,1-1.31.87c-4.08,1.71-9,0-12.14-3.11s-4.93-7.32-6.44-11.48-2.87-8.47-5.46-12.06c-.71-1-1.55-2.06-1.36-3.25a3.23,3.23,0,0,1,1.08-1.75c3.63-3.3,9.76-1.37,14-3.92a22,22,0,0,1,2.88-1.85,4.47,4.47,0,0,1,5.37,1.89" transform="translate(6.79 19.72)"/><path class="cls-5" d="M161,334c-.22-11.6-7.27-21.8-14-31.22-.34-.48-.8-1-1.38-1s-1,.74-1.16,1.35c-1.12,3.9.17,8.06,0,12.11a17.4,17.4,0,0,1-8.84,14.38l1.26-16.53a36.1,36.1,0,0,0-11,15.75c-2.68-2.3-3.1-6.41-2.06-9.79s3.24-6.25,5.19-9.19,3.75-6.21,3.76-9.74l-6.88-2a5.84,5.84,0,0,0-2.29-.35,5.62,5.62,0,0,0-2.48,1.2q-5.31,3.75-10.42,7.77a10.81,10.81,0,0,0-3.47,3.78c-1,2.21-.46,4.8.26,7.12a25.8,25.8,0,0,0,5.43,10.18c4.51,4.8,11.35,6.61,17.9,7.26s13.24.41,19.61,2.06c2.24.58,4.54,1.4,6.82,1s4.48-2.58,3.85-4.82" transform="translate(6.79 19.72)"/><path class="cls-5" d="M201,67.12a19.32,19.32,0,0,0-6.84,7.18c-.3.54-.43,1.43.17,1.58a1.05,1.05,0,0,0,.82-.31l3.46-2.64a3.5,3.5,0,0,0,.25,1.81,10.47,10.47,0,0,1,4.64-2.85l-.65,6.61a1.42,1.42,0,0,0,.14,1c.49.68,1.55,0,2-.63,1.4-1.94,2.75-4.55,5.13-4.55a3.6,3.6,0,0,0,.16,1.73,1.19,1.19,0,0,0,1.43.69,1.72,1.72,0,0,0,.52-.41l7.36-7.55c.52-.53,1.08-1.21.91-1.93s-1.25-1.14-2.11-1.27l-7.08-1.1a18.64,18.64,0,0,0-6.61-.25,6.47,6.47,0,0,0-5,3.9" transform="translate(6.79 19.72)"/><path class="cls-5" d="M240.42,97.25c-5-2.75-10.54-5.6-16.06-4.28a40.7,40.7,0,0,1,8.71,4.21c.42.27.89.63.89,1.13,0,1-1.6.94-2.55.52a25.1,25.1,0,0,0-17.59-.93c3.67,2.3,8.1,3,12.29,4.08s8.55,3,10.8,6.66c.52.86.92,1.8,1.52,2.61,1.18,1.55,3,2.46,4.2,4a1.28,1.28,0,0,1,.31,1.13c-.19.52-.88.61-1.44.57-5.73-.46-10.64-6.22-16.24-4.9a18.7,18.7,0,0,0,4.55,3.26l11.05,6.38c1.21.7,2.64,1.42,3.93.9s1.82-2,2.13-3.32a27.31,27.31,0,0,0-1.34-16.3,12.64,12.64,0,0,0-4.43-6" transform="translate(6.79 19.72)"/><path class="cls-5" d="M242,130.89,227.68,133a33.42,33.42,0,0,0-6.94,1.5c-1.16.43-2.48,1.65-1.77,2.66a2,2,0,0,0,.88.61c3.19,1.35,6.81.74,10.25.43a57,57,0,0,1,12.59.26,2,2,0,0,1,1.52.7,1.45,1.45,0,0,1,.09,1.12c-.44,1.58-2.25,2.31-3.87,2.54s-3.38.23-4.69,1.21c-.59.43-1,1-1.62,1.46a8,8,0,0,1-3.45,1.21c-6.53,1.25-13.21,3.15-18.24,7.5-.54.47-1.11,1.12-.93,1.82s1,1,1.7,1c3,.27,5.75-1.65,8.74-2,1.71-.19,3.43.16,5.14.11a27.14,27.14,0,0,0,5.19-.91,61,61,0,0,1,16-1.46c.91,0,2.08.33,2.16,1.24a1.53,1.53,0,0,1-.42,1.08c-1.53,1.92-4.31,2.08-6.72,2.57-3.57.73-6.83,2.5-10.3,3.62a29.22,29.22,0,0,1-8.9,1.42c.87,1.8,3.33,2,5.32,1.83a147,147,0,0,0,18.23-2.43c2-.4,4.15-.84,6.06-.08s3.26,3.23,2.1,4.91a5.24,5.24,0,0,1-1.44,1.25c-5,3.35-10.08,6.73-15.74,8.82a17.53,17.53,0,0,0-3.83,1.7,4.52,4.52,0,0,0-2.13,3.44,8.58,8.58,0,0,0,3.83-.2c7.44-1.55,15-3.13,21.81-6.44,1.67-.81,3.43-1.87,4-3.63a7.52,7.52,0,0,0,.11-3.34c-.87-7.63-1.85-15.56-5.94-22.07-2.77-4.4-6.83-7.9-9.4-12.43-.68-1.2-1.34-2.56-2.58-3.17s-3.19.18-3,1.56" transform="translate(6.79 19.72)"/><path class="cls-5" d="M134.32,273.84a34.3,34.3,0,0,0-.15,6.41c.09,1.16.79,2.71,1.9,2.35a1.81,1.81,0,0,0,.85-.77,9.08,9.08,0,0,0,1.55-4.41,2.52,2.52,0,0,1,.56-1.78c1-.88,2.43.61,2.7,1.92s.51,3,1.81,3.31c1.49-1.31,1.51-3.56,2-5.48s2.3-4,4.1-3.16a4.52,4.52,0,0,1,1.81,2.21,19.48,19.48,0,0,0,4,5.17,1.84,1.84,0,0,0,1.11.59c1,0,1.36-1.34,1.36-2.35l.05-9.64c0-.76.18-1.74.93-1.87a1.67,1.67,0,0,1,1.31.67l2.35,2.32A11.87,11.87,0,0,1,171,256.9a3,3,0,0,1,1.81-.06c1,.35,1.5,1.51,1.84,2.54q2,6,3.53,12.07c.37,1.43,1.15,3.2,2.62,3.1a2.18,2.18,0,0,0,1.8-1.87,6.37,6.37,0,0,0-.33-2.76c-1.47-5.47-2.94-11-3-16.68a2.08,2.08,0,0,0-.35-1.39,1.83,1.83,0,0,0-1-.46c-6.14-1.39-12.16,2.54-16.87,6.71s-9.47,9-15.68,10c-2.47.4-5.06.16-7.4,1s-4.39,3.46-3.41,5.76" transform="translate(6.79 19.72)"/><path class="cls-5" d="M192.61,252.64a12.61,12.61,0,0,0-5.62-.59,1.08,1.08,0,0,0-.55.17,1,1,0,0,0-.32.57c-.73,2.39-.16,5,.41,7.41l2.79,11.87a1.86,1.86,0,0,0,.54,1.09,1.26,1.26,0,0,0,1.65-.33,3.6,3.6,0,0,0,.61-1.73,73.89,73.89,0,0,0,.7-18.73" transform="translate(6.79 19.72)"/></g><path d="M205.14,99.27c.19-.17.37-.35.57-.52l.37-.31.17-.14.18-.14.31-.22.72-.47c.47-.29.94-.55,1.43-.79l.35-.16.21-.09.21-.08.45-.17c.5-.17,1-.32,1.51-.44l.87-.19.4-.06c.34-.06-.27,0,.07,0a18.76,18.76,0,0,1,3.67-.06,2,2,0,0,0,2-2,2.05,2.05,0,0,0-2-2,18.6,18.6,0,0,0-14.32,5,2,2,0,0,0,2.83,2.82Z" transform="translate(6.79 19.72)"/><path d="M190.89,104a6.06,6.06,0,0,1,2.84-.17,2.89,2.89,0,0,1,2.4,1.53c.43,1.18-.54,2.41-1.59,3.1a3.28,3.28,0,0,1-1.48.59,2.64,2.64,0,0,1-2-.83,6.75,6.75,0,0,1-1.21-1.81,1.91,1.91,0,0,1-.31-1.12,1.55,1.55,0,0,1,1.21-1.31" transform="translate(6.79 19.72)"/><path d="M191.42,106a5.69,5.69,0,0,1,.93-.2l-.53.07a7.66,7.66,0,0,1,1.79,0l-.53-.07a5.4,5.4,0,0,1,1.18.31l-.47-.2a3.14,3.14,0,0,1,.37.18l.15.09c.16.1.19.24-.16-.12,0,0,.27.22.25.24s-.32-.47-.13-.15a1.74,1.74,0,0,0,.1.19l-.21-.47a2.32,2.32,0,0,1,.13.45l-.07-.53a3.69,3.69,0,0,1,0,.47l.07-.53a2.55,2.55,0,0,1-.15.54l.2-.48c-.1.22-.22.4-.34.61.28-.5.15-.19,0-.05l-.25.26a1.5,1.5,0,0,0-.24.2c.27-.21.33-.25.16-.13a.91.91,0,0,1-.16.11,4.9,4.9,0,0,1-.71.39l.48-.2a3.1,3.1,0,0,1-.66.19l.53-.08a2.35,2.35,0,0,1-.53,0l.54.07a2.94,2.94,0,0,1-.6-.16l.48.2-.37-.19-.18-.12c.26.21.32.25.16.12l-.31-.3-.14-.17c.2.27.24.31.11.15a10.76,10.76,0,0,1-.87-1.55l.2.48a4,4,0,0,1-.15-.45l.08.53a1.37,1.37,0,0,1,0-.35l-.08.53a1.9,1.9,0,0,1,.11-.39l-.21.48a2.12,2.12,0,0,0,.11-.21c.13-.27-.38.42-.12.16s-.42.26-.13.09c.12-.06.22-.12.34-.17l-.48.2.2-.08a2.12,2.12,0,0,0,1.2-.92,2.06,2.06,0,0,0,.2-1.54,2,2,0,0,0-2.46-1.39,3.85,3.85,0,0,0-2.29,1.79,3.35,3.35,0,0,0-.32.92,3.86,3.86,0,0,0,.35,2.34c.75,1.67,2.06,3.44,4,3.83a5.57,5.57,0,0,0,5.52-2.62,4.14,4.14,0,0,0,.67-3.11,3.93,3.93,0,0,0-1.75-2.48,6.1,6.1,0,0,0-2.85-.91,7.48,7.48,0,0,0-3.19.26,2,2,0,1,0,1.06,3.85Z" transform="translate(6.79 19.72)"/><path d="M186.06,117.08c3.64.25,6.32-3.11,8.25-5.76l-3.65-.48a10.91,10.91,0,0,0,9.28,7.38,2,2,0,0,0,2-2,2.05,2.05,0,0,0-2-2l-.26,0-.58-.14a7.43,7.43,0,0,1-.94-.32c.32.14-.19-.1-.25-.13s-.35-.19-.52-.29L197,113l-.24-.18c.11.09.11.1,0,0a9.47,9.47,0,0,1-.81-.75l-.39-.44-.13-.16c.09.12.1.12,0,0a9.14,9.14,0,0,1-.58-.94c-.09-.17-.18-.35-.26-.53.13.3-.06-.23-.08-.27a2,2,0,0,0-3.65-.48,20.07,20.07,0,0,1-2.45,2.74,4.26,4.26,0,0,1-1.24.92c-.32.15.21-.06-.07,0l-.36.1c-.31.08.25,0-.09,0a5.82,5.82,0,0,1-.59,0,2,2,0,0,0,0,4Z" transform="translate(6.79 19.72)"/><path d="M204.45,105a60.73,60.73,0,0,1,28.58-.91c1.26.26,1.8-1.67.54-1.93a63,63,0,0,0-29.65.91,1,1,0,0,0,.53,1.93Z" transform="translate(6.79 19.72)"/><path d="M203.74,108.39c7.82-.38,16.15-.74,23.28,3,1.13.61,2.15-1.12,1-1.72-7.47-4-16.09-3.72-24.29-3.32-1.28.06-1.29,2.06,0,2Z" transform="translate(6.79 19.72)"/><path d="M203.47,111.62a126,126,0,0,1,23.94,7.28c1.19.49,1.7-1.45.53-1.93A126.48,126.48,0,0,0,204,109.69c-1.25-.25-1.79,1.68-.53,1.93Z" transform="translate(6.79 19.72)"/><path d="M187.74,95.93a17.27,17.27,0,0,0-9-5.15,2,2,0,0,0-1.07,3.85,17,17,0,0,1,2.21.65c.15.06.67.34.19.07a4.16,4.16,0,0,0,.48.22c.36.17.71.35,1,.55s.64.38,1,.59l.48.34.21.16c-.09-.06-.29-.24-.09-.07a16.38,16.38,0,0,1,1.72,1.61,2,2,0,0,0,2.83,0,2,2,0,0,0,0-2.82Z" transform="translate(6.79 19.72)"/><path class="cls-6" d="M224,72.08c2.86-4.92,7.67-8.33,12.32-11.59,2.38-1.67,5.25-3.42,8-2.49a100.45,100.45,0,0,1-7.84,28.72,62.61,62.61,0,0,1-3.55-5.81,1.86,1.86,0,0,1-.3-1,2.16,2.16,0,0,1,.61-1.1A5.49,5.49,0,0,0,234.34,75a9.1,9.1,0,0,0-3.26,2.29,27.17,27.17,0,0,0,1.18-3.5c.16-.58.14-1.41-.45-1.54a1.1,1.1,0,0,0-.75.22A15.38,15.38,0,0,0,229,74a11.56,11.56,0,0,0,2.75-4.21,5.55,5.55,0,0,0-3.09,1.69c-.5.55-.9,1.2-1.43,1.72a2.27,2.27,0,0,1-2,.72,1.21,1.21,0,0,1-.8-1.73" transform="translate(6.79 19.72)"/><path class="cls-6" d="M192.05,67.81c.93-5.33,1.81-11-.41-16-3.59,3.43-6.31,7.65-9,11.83-1.87,2.91-3.81,6.25-3,9.6l4.11-2.44a2.36,2.36,0,0,0,.72-.57,2.29,2.29,0,0,0,.33-1l.89-4.92a13.21,13.21,0,0,1,.73,5.29A11.65,11.65,0,0,1,188,63.34a3.28,3.28,0,0,1,.85,2.13,3.83,3.83,0,0,0,.73,2.19c.54.57,1.67.62,2-.1" transform="translate(6.79 19.72)"/><path class="cls-7" d="M191.09,128.1l10.31,1.15a2,2,0,0,0,2-2,2.06,2.06,0,0,0-2-2l-10.31-1.15a2,2,0,0,0-2,2,2.06,2.06,0,0,0,2,2Z" transform="translate(6.79 19.72)"/><path class="cls-7" d="M156.69,263.64c5.32-6.58,13.64-9.31,21.81-10.1a106.2,106.2,0,0,1,13.7-.33,47.06,47.06,0,0,1,13.48,2.15c2.45.82,3.5-3,1.06-3.86a51.11,51.11,0,0,0-14.54-2.29,99.54,99.54,0,0,0-14.65.43c-8.84,1-17.92,4-23.69,11.17a2.06,2.06,0,0,0,0,2.83,2,2,0,0,0,2.83,0Z" transform="translate(6.79 19.72)"/><path class="cls-8" d="M149.69,151.79c-1.59-9.75-5.66-19-10.71-27.44-3.15-5.29-6.9-10.52-12.32-13.44a19.18,19.18,0,0,0-6.76-2.11c.61-3.58.94-7.22,1.26-10.85l-11.76.15c-3.49,4.75-9.79,6.58-15.69,6.78S81.92,104,76,104.24c-9.53.42-18.57,4.44-26.68,9.47-4.18,2.58-8.28,5.55-11,9.66s-3.78,9.56-1.66,14a8.27,8.27,0,0,0,4,4.12,10.71,10.71,0,0,0,5.45.49c8.82-1,16.8-5.85,25.56-7.25,11.84-1.9,25,2.4,35.35-3.7a22,22,0,0,0,6.13-5.51c3.6,4.32,7.07,8.67,8.54,14,1.79,6.51.25,13.43-1.29,20-1.75,7.45-3.66,15.24-8.76,20.94-3.43,3.83-8,6.35-12.42,9l-1.37-2.4-26.59,3.22a48.67,48.67,0,0,1-10.84.51c-11-1.13-19.72-9.36-29.53-14.46-3.37-1.75-7.07-3.18-10.87-2.93s-7.65,2.54-8.73,6.19c-.87,2.91.15,6,1.43,8.81,6.17,13.25,18.57,22.79,32,28.5s28.07,8,42.52,10.32c4,.64,8.16,1.27,12.15.43a17.21,17.21,0,0,0,13.2-14.75l-3.12-5.44a107.08,107.08,0,0,0,17-8c7.76-4.63,14.77-10.88,19-18.87C150.26,171.89,151.28,161.54,149.69,151.79Z" transform="translate(6.79 19.72)"/><g class="cls-9"><path class="cls-10" d="M31.83,172.59a12.63,12.63,0,0,1,6.5,13c-.6,3.5-2.72,6.84-2.1,10.34.67,3.74,4.34,6.26,8,7.26s7.56.9,11.27,1.75c7.84,1.79,14.07,7.54,20.19,12.75s13.17,10.34,21.22,10.42a6.11,6.11,0,0,0,2.93-.54,6.66,6.66,0,0,0,2.43-2.74c4.19-7.22,6.22-15.53,6.85-23.85.42-5.59.15-11.51-2.75-16.31-3.67-6.09-10.8-9.14-17.66-11C78.93,171,68.39,170,58.7,173c-5.39,1.67-11,4.57-16.35,2.77-3.07-1-6.06-3.59-9.12-2.52" transform="translate(6.79 19.72)"/><path class="cls-10" d="M40.49,116.26c2.4-1.58,5.17-3.24,8-2.58,2.53.59,4.23,2.89,5.72,5,3.68,5.31,7.49,10.93,8.17,17.36.36,3.48.37,8,3.65,9.2,3,1.12,6-1.87,7.29-4.85s1.91-6.49,4.48-8.44c3.68-2.8,8.86-.84,13.46-.36,7.18.77,14.41-2.59,19.41-7.81s8-12.11,9.56-19.16c1.28-5.6,1.48-12.24-2.64-16.25-2.27-2.21-5.45-3.17-8.55-3.82C93,81.2,76.19,84.28,60.85,90,54.71,92.28,48.58,95.08,44,99.74s-7.43,11.52-5.77,17.85a1.21,1.21,0,0,0,1.57-1" transform="translate(6.79 19.72)"/></g><path class="cls-11" d="M181.5,73.26c1-10.69,4.05-21.33,2.95-32,3.52-8.83,6.48-18,5.83-27.38A22.31,22.31,0,0,0,186.37,2a4.53,4.53,0,0,0-2.6-1.95A5,5,0,0,0,181,.6a60.54,60.54,0,0,0-21.3,15.12c-9.45-.85-21.22.17-30.55,4.23-3.9-6.29-8.51-12.34-15.32-14.9a1.93,1.93,0,0,0-1.69,0,2,2,0,0,0-.64,1c-3.14,9.35-.78,19.53,1.87,29.07a61.19,61.19,0,0,0-4.2,12.14,34,34,0,0,0-1.27,9.54c.21,4.82,2.14,9.42,4.49,13.64a69.7,69.7,0,0,0,6.94,10.23c-9.88,8.59-14.69,21.67-17,34.56-.56,3.1-1.07,6.41-3.16,8.78-3.3,3.75-9,3.63-14,4.15-15.62,1.62-28.9,12-39.72,23.42-3.88,4.09-7.77,8.8-8.09,14.43a7,7,0,0,0,.46,3.21A6.78,6.78,0,0,0,43,172.84c6.42,1.16,12.51-2.8,18.34-5.74,6.05-3,13.8-10.14,20.41-11.66,10-2.31,19.65-4.57,28.92-7.43l-11.9,17.4c-5.35,7.8-10.83,16-12.36,25.29s2.11,20.24,10.76,24.08c-10.57-3.89-22.16.44-32.87,3.93s-23.49,5.82-32.39-1.09c-4.12-3.2-6.71-7.93-10.13-11.87s-8.48-7.29-13.57-6.13C2.62,200.9-.55,207.39.08,213.1s4.1,10.69,7.8,15.09c9.57,11.37,22,24,36.81,25.14,13.45,1,25.53-6.16,34.15-2.92,3.61,1.36,8,4.32,12.46,7.46-1.46.38-2.94.7-4.45.95-5.75.95-11.61.84-17.43.92-11.21.15-22.4,1-33.54,2.18-10.37,1.08-21.34,2.69-29.3,9.41-4.9,4.13-8.3,11.36-5.14,16.94,2.12,3.77,6.67,5.61,11,5.73s8.53-1.19,12.69-2.36a217.77,217.77,0,0,1,40.43-7.38c17.94-1.55,36.2-.89,53.67-5.24,14.67-3.65,29.16-11.72,37.14-24.2l1.18-1.19c6.83-7.13,14.43-15.81,19.19-24.46A144.93,144.93,0,0,0,191.52,188C199.4,150.2,177.74,111.71,181.5,73.26Z" transform="translate(6.79 19.72)"/><g class="cls-12"><path class="cls-13" d="M105.06,73.28c-.92-2.87-1.84-5.94-1-8.85.69-2.5,2.54-4.49,4.33-6.37l12.13-12.73c2.47-2.58,5.64-5.4,9.12-4.61,2.57.58,4.29,2.94,6.5,4.37,3.52,2.27,8,2,12.21,2.15,8.34.28,17.27,2.85,22.18,9.59,2.44,3.36,4.1,7.85,8,9.19,4.5,1.53,9.06-2.09,12-5.8,5.8-7.22,9.77-15.76,12.64-24.56,2.26-6.93,3.88-14.16,3.71-21.45S204.67-.47,200.18-6.21c-4.87-6.23-12.28-10.13-20-12s-15.71-1.76-23.6-1.22c-17.15,1.19-34.24,4.61-50,11.41C98.31-4.41,90.34.14,83.92,6.46S72.68,21,71.56,29.94c-.79,6.33.27,12.75,1.77,19,1.76,7.26,4.18,14.46,8.15,20.79a14.54,14.54,0,0,0,4.06,4.58c5,3.32,11.69.62,17-2.12" transform="translate(6.79 19.72)"/><path class="cls-13" d="M186.59,67.4C177.9,75,165,74,153.67,76a57.7,57.7,0,0,0-34.14,20.17c-7.7,9.48-12.15,25.58-23.78,29.29-9.17,2.92-15.63-2.83-25.55.45-9.14,3-20.82,16.4-27,23.76-1,1.18-2,2.72-1.48,4.18.85,2.41,4.32,1.85,6.83,2.31,4.23.79,6.46,5.28,8.61,9s6.11,7.58,10.13,6.07c3.14-1.19,4.25-4.94,5.7-8,3.24-6.8,11.28-12.39,18.22-15.32s16.88-2.72,24.1-4.89c8.39-2.51,12.56-6.78,20.13-11.18.48,4.19-3,7.94-3.08,12.15-.09,3.76,2.46,7,4.7,10A98.06,98.06,0,0,1,147.15,171c3.52,7.57,5.7,17.51-.1,23.52-4.35,4.51-12,5.21-15.39,10.45-3.67,5.59-.76,13.58-4,19.41a6.25,6.25,0,0,1-3.43,3.05,8.43,8.43,0,0,1-5.08-.53c-17.2-5.75-16.18-14.32-34.32-14-11.23.16-38.84,1.33-49.9-.68a7.06,7.06,0,0,0-3.16-.16c-3,.85-3,5-3.18,8.13-.36,5.81.6,17.78,12.77,22.09,7.86,2.78,13.56,1.45,21.9,1.33,5.9-.09,12.09-1.32,17.92-.43,4.09.62,9.31,4.57,12.79,6.8,4.71,3,6.9,8.71,7.27,12.83.59,6.59-5.53,11-.94,15.77a10.28,10.28,0,0,0,3.69,2.19c11.71,4.61,25.15,3.51,36.85-1.15s21.8-12.61,30.69-21.53a124.58,124.58,0,0,0,23-30.86c9.08-17.75,12.74-37.91,12.83-57.85s-3.29-39.73-7.65-59.18q-4.8-21.43-11.23-42.47" transform="translate(6.79 19.72)"/><path class="cls-13" d="M3.08,319a14.23,14.23,0,0,0,.54-15.53c-1.95-3.11-5.06-5.33-7.23-8.31a17.1,17.1,0,0,1-2.27-15.44A17.09,17.09,0,0,1,5.53,269.08c4.73-1.3,9.75-.48,14.64-.77,4.59-.28,9.07-1.55,13.66-1.86,15.48-1.05,30,9.12,38.57,22,2.56,3.84,4.79,8.24,4.4,12.84-.51,6.11-5.69,11-11.49,13s-12.12,1.62-18.22,1-12.29-1.54-18.33-.48c-4.85.85-9.46,2.93-14.36,3.45S3.81,317.24,1.67,312.8" transform="translate(6.79 19.72)"/></g><path d="M117.38,36.92A17.61,17.61,0,0,1,120.92,38l-.48-.21c.54.23,1.07.49,1.59.77a2.11,2.11,0,0,0,1.54.2,2.09,2.09,0,0,0,1.2-.92,2,2,0,0,0-.72-2.74,19.65,19.65,0,0,0-5.61-2,2.16,2.16,0,0,0-1.54.2,2,2,0,0,0-.92,1.2,2,2,0,0,0,.2,1.54,2,2,0,0,0,1.2.92Z" transform="translate(6.79 19.72)"/><path d="M141.54,37a19.39,19.39,0,0,1,13-4.57,2,2,0,0,0,0-4,23.55,23.55,0,0,0-15.85,5.74,2,2,0,0,0,0,2.83,2,2,0,0,0,2.83,0Z" transform="translate(6.79 19.72)"/><path d="M130.82,41.39a9.19,9.19,0,0,0-4.2.23,3.53,3.53,0,0,0-1.37.68,1.65,1.65,0,0,0-.6,1.36,2.55,2.55,0,0,0,.74,1.3,7.75,7.75,0,0,0,2,1.84.91.91,0,0,0,.5.15,1.05,1.05,0,0,0,.56-.27c1.42-1.07,2.93-2.26,3.37-4,.11-.45,0-1.06-.39-1.18" transform="translate(6.79 19.72)"/><path d="M131.36,39.46a11,11,0,0,0-5.73.39,4.47,4.47,0,0,0-2.57,2.06,3.48,3.48,0,0,0,.23,3.6,12.33,12.33,0,0,0,1.72,2,4.15,4.15,0,0,0,3.18,1.44,5.6,5.6,0,0,0,2.61-1.5,10.64,10.64,0,0,0,1.52-1.48,6.71,6.71,0,0,0,1.46-2.7,3.46,3.46,0,0,0,0-1.86A2.71,2.71,0,0,0,132,39.59a2,2,0,0,0-2.46,1.4,2,2,0,0,0,1.4,2.46,1.62,1.62,0,0,1-1-.85c-.13-.34,0-.08,0,0l-.07-.54a1.77,1.77,0,0,1,0,.46L130,42a2.09,2.09,0,0,1-.2.7l.11-.28-.09.19-.16.29c-.06.09-.11.18-.18.27l-.12.18c.19-.25.24-.31.14-.19s-.31.36-.48.53a14.39,14.39,0,0,1-1.1,1c-.11.09-.42.32.05,0l-.27.21-.26.19a.94.94,0,0,1-.18.12c.32-.11.38-.15.18-.11l.53-.07h-.1l.53.07c-.29-.06.17.1.18.1s-.22-.11-.25-.13l-.21-.13c-.26-.18,0-.06.07.06-.23-.26-.54-.48-.78-.74s-.46-.51-.68-.77,0,0,.06.08a1.27,1.27,0,0,0-.13-.19c-.2-.28.07.33,0,.11s-.05-.18-.07-.28l.07.53c0-.11,0-.21,0-.32l-.07.53a.8.8,0,0,1,0-.21c.06-.2,0-.14-.08.17l.12-.19c-.21.26-.24.31-.1.15s.11-.1-.14.09l.2-.12c.06,0,.52-.27.19-.11s.14,0,.21-.06a4.5,4.5,0,0,1,.49-.14,9.7,9.7,0,0,1,1.05-.2l-.53.07a10,10,0,0,1,2.38,0l-.53-.07.39.06a2.16,2.16,0,0,0,1.54-.2,2,2,0,0,0-.47-3.66Z" transform="translate(6.79 19.72)"/><path d="M123.82,58.17c2.53-2.57,5.13-5.4,5.84-9.06l-3.65.48A17.13,17.13,0,0,0,140.25,57c2.57,0,2.58-4,0-4a13,13,0,0,1-10.79-5.38,2,2,0,0,0-2-1,2,2,0,0,0-1.66,1.43c-.59,3-2.75,5.19-4.81,7.29-1.81,1.84,1,4.67,2.82,2.83Z" transform="translate(6.79 19.72)"/><path d="M118.86,44.71a102.23,102.23,0,0,0-23.13.2c-1.26.15-1.27,2.15,0,2a102.23,102.23,0,0,1,23.13-.2c1.28.13,1.27-1.87,0-2Z" transform="translate(6.79 19.72)"/><path d="M119.1,46.93A113.29,113.29,0,0,0,86.92,57.07c-1.16.56-.15,2.28,1,1.72a111.6,111.6,0,0,1,31.7-9.93c1.26-.2.73-2.13-.53-1.93Z" transform="translate(6.79 19.72)"/><path d="M118.18,49.39A104.66,104.66,0,0,0,98.07,59.58c-1.07.7-.07,2.43,1,1.73a102.52,102.52,0,0,1,19.64-10c1.19-.45.67-2.39-.54-1.93Z" transform="translate(6.79 19.72)"/><path d="M139.18,42.94A100.81,100.81,0,0,1,165.1,38c1.28-.07,1.28-2.07,0-2a103.24,103.24,0,0,0-26.46,5c-1.21.4-.69,2.34.54,1.93Z" transform="translate(6.79 19.72)"/><path d="M138.66,46.25a97.43,97.43,0,0,1,36.07.11c1.25.24,1.79-1.68.53-1.93a100.12,100.12,0,0,0-37.13-.11c-1.27.24-.73,2.17.53,1.93Z" transform="translate(6.79 19.72)"/><path d="M138,48.72a98,98,0,0,1,24.2,2.56c1.26.29,1.79-1.64.53-1.93A100.86,100.86,0,0,0,138,46.72a1,1,0,0,0,0,2Z" transform="translate(6.79 19.72)"/><path class="cls-6" d="M164.42,17.21a52.15,52.15,0,0,1,16.13-13c1.28-.66,3-1.21,4-.2a3.47,3.47,0,0,1,.76,1.49,39.59,39.59,0,0,1-4.66,32.8,26.83,26.83,0,0,1-3.35-5,5.7,5.7,0,0,1-.72-2.06c-.22-2.15,1.7-4,1.91-6.13a2.29,2.29,0,0,0-1-2.32,2.61,2.61,0,0,0-2.52.47,8.36,8.36,0,0,1-2.28,1.42l.65-6.25a1.29,1.29,0,0,0-.09-.8c-.28-.45-.95-.37-1.44-.18a6.12,6.12,0,0,0-2.39,1.68,13.37,13.37,0,0,1-1.36,1.54,1.81,1.81,0,0,1-1.92.34c-1.13-.63-.81-2.62-2-3.21" transform="translate(6.79 19.72)"/><path class="cls-6" d="M122.63,23.12A97.81,97.81,0,0,0,114.82,8c-.38-.6-1-1.29-1.65-1.12s-.9,1.06-1,1.77a68.6,68.6,0,0,0,2.69,24.55,7.13,7.13,0,0,0,1.52-8.07,4.26,4.26,0,0,1,2,1.67l-.3-3.84,2.51,2.53,1.69-2.21" transform="translate(6.79 19.72)"/><path class="cls-14" d="M125.67,77.22a74.94,74.94,0,0,0,20.45-3c2.46-.72,1.41-4.58-1.07-3.86a70.61,70.61,0,0,1-19.38,2.85c-2.58,0-2.58,4,0,4Z" transform="translate(6.79 19.72)"/><path class="cls-14" d="M41.26,133.39a8.64,8.64,0,0,1,1-1.67l-.32.41a9.26,9.26,0,0,1,1.65-1.66l-.4.32a7.86,7.86,0,0,1,1.25-.81,2.09,2.09,0,0,0,.92-1.2,2,2,0,0,0-2.94-2.26,10.86,10.86,0,0,0-4.63,4.85,2.16,2.16,0,0,0-.2,1.54,2.07,2.07,0,0,0,.92,1.19,2,2,0,0,0,2.74-.71Z" transform="translate(6.79 19.72)"/><path class="cls-14" d="M44,138.77a15.22,15.22,0,0,1,2-1.86l-.4.31a15.28,15.28,0,0,1,2.73-1.68,2,2,0,0,0,.92-1.19,2.06,2.06,0,0,0-.2-1.54,2,2,0,0,0-1.2-.92,2.23,2.23,0,0,0-1.54.2A16.32,16.32,0,0,0,41.17,136a2.12,2.12,0,0,0-.59,1.41,2,2,0,0,0,2,2,2,2,0,0,0,1.42-.59Z" transform="translate(6.79 19.72)"/><path class="cls-14" d="M43.21,166.27A8.52,8.52,0,0,1,44,165l-.31.41a8.46,8.46,0,0,1,1.49-1.5l-.41.32c.18-.14.36-.27.55-.39a2.16,2.16,0,0,0,.92-1.2,2.07,2.07,0,0,0-.2-1.54,2,2,0,0,0-2.74-.72,10.88,10.88,0,0,0-2.05,1.72,10.64,10.64,0,0,0-1.53,2.19,2.07,2.07,0,0,0-.2,1.54,2,2,0,0,0,.92,1.2,2,2,0,0,0,1.54.2,1.93,1.93,0,0,0,1.19-.92Z" transform="translate(6.79 19.72)"/><path class="cls-14" d="M47,169c.27-.23.54-.45.82-.66l-.41.31a27.56,27.56,0,0,1,2.71-1.85,2,2,0,0,0-.48-3.66,2,2,0,0,0-1.54.21,31,31,0,0,0-3.93,2.82,2,2,0,0,0-.58,1.41,2,2,0,0,0,.58,1.42,2,2,0,0,0,1.42.58l.53-.07A2.11,2.11,0,0,0,47,169Z" transform="translate(6.79 19.72)"/><path class="cls-14" d="M3.54,209l3.27,4.26a1.55,1.55,0,0,0,.52.56,1.45,1.45,0,0,0,.68.36,2.07,2.07,0,0,0,1.54-.2,2,2,0,0,0,.92-1.2,1.92,1.92,0,0,0-.2-1.54L7,207a1.56,1.56,0,0,0-.51-.57,1.58,1.58,0,0,0-.68-.35,2,2,0,0,0-2.46,1.39,1.92,1.92,0,0,0,.2,1.54Z" transform="translate(6.79 19.72)"/><path class="cls-14" d="M8.08,205.63a18.4,18.4,0,0,0,4.72,3.79,2.07,2.07,0,0,0,1.54.2,2,2,0,0,0,1.2-.91,2,2,0,0,0-.72-2.74,18.46,18.46,0,0,1-2-1.35l.4.31a16.94,16.94,0,0,1-2.27-2.13,2,2,0,0,0-3.42,1.42,2.21,2.21,0,0,0,.59,1.41Z" transform="translate(6.79 19.72)"/><path class="cls-14" d="M16.94,182.54a8.56,8.56,0,0,1,1.07.7l-.4-.31a8.23,8.23,0,0,1,1.44,1.45l-.31-.4a8,8,0,0,1,1,1.76l-.2-.48.1.24a2.14,2.14,0,0,0,.92,1.19,2,2,0,0,0,2.73-.71,1.9,1.9,0,0,0,.2-1.54,10.23,10.23,0,0,0-.82-1.74,10.51,10.51,0,0,0-1.13-1.52A9.58,9.58,0,0,0,19,179.09a2.12,2.12,0,0,0-1.54-.2,2.06,2.06,0,0,0-1.2.92,2,2,0,0,0,.72,2.73Z" transform="translate(6.79 19.72)"/><path class="cls-14" d="M21.27,178.22c.3.2.6.41.88.63l-.4-.31a14.14,14.14,0,0,1,2.51,2.5l-.32-.4a13.2,13.2,0,0,1,.86,1.25,2,2,0,0,0,1.2.92,2,2,0,0,0,1.54-.2,2,2,0,0,0,.92-1.19,2.06,2.06,0,0,0-.2-1.54,16.27,16.27,0,0,0-5-5.11,2,2,0,0,0-1.54-.2,2,2,0,0,0-1.2.92,2,2,0,0,0,.72,2.73Z" transform="translate(6.79 19.72)"/><path class="cls-2" d="M203.2,135.65c-8.46,5.36-10.43,9.55-13.88,14.13a10.59,10.59,0,0,1-8.76,5.22l-31.13,5.35c-6.33,1.09-13,2.36-17.75,6.73s-6.05,13-1,16.9c2.44,1.89,5.68,2.28,8.75,2.56q14.5,1.31,29.07,1.29c17.65,0,36.94-2.19,49.43-14.67" transform="translate(6.79 19.72)"/><g class="cls-15"><path class="cls-4" d="M207.67,134.7c-4.12-1.22-8.6.32-12.22,2.64s-6.69,5.42-10.28,7.79c-5.24,3.46-11.37,5.26-17.41,7-7.11,2.06-14.23,4.13-21.5,5.57-2.22.45-4.83,1.12-5.63,3.25-.65,1.76.28,3.66,1,5.4a21.71,21.71,0,0,1,1.51,8c0,1.44-.14,3,.57,4.22,1.19,2.09,4.28,2.36,6.39,1.2s3.45-3.31,4.7-5.36c.86,1.59,2.17,3.42,4,3.15C160.14,177.4,161,176,162,175a6.17,6.17,0,0,1,8.55.37c1,1.1,1.57,2.59,2.87,3.25a6,6,0,0,0,3.17.31l15.53-1.37a4.61,4.61,0,0,1,2.31.2,4.68,4.68,0,0,1,1.49,1.35l2.26,2.76a3.47,3.47,0,0,0,2.69,1.65l12.81,2.17c2.4.41,5,.81,7.23-.08a10.32,10.32,0,0,0,4.4-3.73c4.95-6.82,5.21-16.28,2.17-24.13s-9-14.26-15.62-19.47" transform="translate(6.79 19.72)"/><path class="cls-5" d="M151.35,159.91a18.57,18.57,0,0,0,.47,7c.34,1.3,1.57,2.85,2.7,2.12a2.29,2.29,0,0,0,.78-1.68l1.58-10c.11-.66.29-1.43.91-1.68,1.11-.45,1.87,1.14,2,2.33l1.12,9.76a9.1,9.1,0,0,0,2.48-5,49.25,49.25,0,0,0,.13-5.16,6.3,6.3,0,0,1,1.89-4.65c1.33-1.09,3.68-1,4.5.51a4.89,4.89,0,0,1,.42,1.65,42.25,42.25,0,0,0,3.8,12.43,4,4,0,0,0,1.44,1.85,2.86,2.86,0,0,0,3.32-.73,8.33,8.33,0,0,0,1.67-3.22l6.8-19.73q2.88,11.48,6.61,22.71c3-3.24,3.51-8,3.72-12.37a150.14,150.14,0,0,0-.07-15.59,2.41,2.41,0,0,0-3.61-2.61C185.93,140,177.94,142.48,170,145l-12.15,3.77c-2.15.66-4.4,1.39-6,3s-2.16,4.42-.66,6.1" transform="translate(6.79 19.72)"/></g><path class="cls-7" d="M132.87,175.72a8,8,0,0,1,.84-1.37l-.31.41a8.18,8.18,0,0,1,1.44-1.44l-.41.31a8.33,8.33,0,0,1,1.7-1,2,2,0,0,0,.92-1.19,2,2,0,0,0-.2-1.55,2,2,0,0,0-1.19-.91l-.54-.08a2.06,2.06,0,0,0-1,.28,9.13,9.13,0,0,0-2.74,1.85,9.39,9.39,0,0,0-2,2.67,2.17,2.17,0,0,0-.2,1.54,2.07,2.07,0,0,0,.92,1.19,2,2,0,0,0,2.74-.71Z" transform="translate(6.79 19.72)"/><path class="cls-7" d="M135.52,180.29A10,10,0,0,1,137,178.9l-.41.31a9.83,9.83,0,0,1,2.11-1.22l-.48.2c.29-.12.58-.23.87-.32a2.09,2.09,0,0,0,1.2-.92A2,2,0,0,0,138,174a11.35,11.35,0,0,0-5.3,3.45,2.16,2.16,0,0,0-.59,1.42,2,2,0,0,0,2,2,2,2,0,0,0,1.41-.59Z" transform="translate(6.79 19.72)"/><path class="cls-7" d="M188.32,152.47a60.26,60.26,0,0,1,32.32-20.63c2.49-.62,1.44-4.47-1.07-3.85a63.78,63.78,0,0,0-34.08,21.65,2.06,2.06,0,0,0,0,2.83,2,2,0,0,0,2.83,0Z" transform="translate(6.79 19.72)"/><path class="cls-16" d="M53.62,176.48c-5.9,5.45-10.73,33-12.72,41.94-9.44,42.18-5.06,38.06-14.49,80.23-.53,2.37-1.07,4.84-.52,7.21,1,4.31,5.37,7.13,9.74,7.83s8.8-.22,13.17-.85c42.5-6.14,83.28,15.68,124.28,28.45a303.16,303.16,0,0,0,94,13.66c3,0,6-.13,8.74-1.26,8-3.28,10.16-13.33,11.65-21.84,8.46-48.07,16.24-47.26,20.09-95.92.41-5.18.57-10.62-1.69-15.3-4.86-10-18-12.07-29.14-12.86-20.23-1.44-40.49-3.05-60.45-6.62-40.47-7.25-79.43-22.52-120.34-26.59C88.92,173.87,59.51,171,53.62,176.48Z" transform="translate(6.79 19.72)"/><g class="cls-17"><path class="cls-18" d="M101.3,180.72c-1.09-1.88-2.51-3.8-4.62-4.35A5.06,5.06,0,0,0,91,179.23a5.82,5.82,0,0,0,1.34,6.33,6.92,6.92,0,0,0,6.4,1.62,10.54,10.54,0,0,0-3.14,4.48,5.78,5.78,0,0,0-.23,3.84c.91,2.62,4.54,3.51,7,2.19s3.7-4.18,3.94-6.95c1.16,3.14,4.9,5.64,7.87,4.1,2.28-1.18,3-4.31,2.09-6.69a9,9,0,0,0-5.67-4.83,5.85,5.85,0,0,0,6.66-4.4,5.5,5.5,0,0,0-4.72-6.29,5.21,5.21,0,0,0-5.37,5.59,17.08,17.08,0,0,0,0-5.88,7.85,7.85,0,0,0-1.46-3.62,3.83,3.83,0,0,0-3.46-1.51c-2.26.37-3.28,3-3.49,5.32a20.86,20.86,0,0,0,.94,8.45" transform="translate(6.79 19.72)"/><path class="cls-11" d="M102.68,180.46a5.77,5.77,0,0,0-1.49,2.91,3.2,3.2,0,0,0,2.81,3.27,3.77,3.77,0,0,0,3.75-2.38,3.61,3.61,0,0,0-.88-4,2.86,2.86,0,0,0-3.91.24" transform="translate(6.79 19.72)"/><path class="cls-18" d="M191.66,294.3c-1.09-1.88-2.51-3.8-4.62-4.34a5,5,0,0,0-5.65,2.85,5.85,5.85,0,0,0,1.34,6.34,6.91,6.91,0,0,0,6.4,1.61,10.58,10.58,0,0,0-3.14,4.49,5.75,5.75,0,0,0-.23,3.83c.91,2.62,4.55,3.51,7,2.19s3.7-4.18,3.94-6.94c1.17,3.14,4.9,5.63,7.87,4.09,2.28-1.18,3-4.31,2.09-6.69A9,9,0,0,0,201,296.9a5.83,5.83,0,0,0,6.66-4.4,5.51,5.51,0,0,0-4.72-6.29,5.22,5.22,0,0,0-5.37,5.59,17.27,17.27,0,0,0,0-5.87A8,8,0,0,0,196,282.3a3.83,3.83,0,0,0-3.46-1.5c-2.26.37-3.28,3-3.49,5.31a21.09,21.09,0,0,0,.94,8.46" transform="translate(6.79 19.72)"/><path class="cls-11" d="M193,294a5.77,5.77,0,0,0-1.49,2.91,3.2,3.2,0,0,0,2.81,3.27,3.77,3.77,0,0,0,3.75-2.38,3.59,3.59,0,0,0-.88-4,2.87,2.87,0,0,0-3.91.25" transform="translate(6.79 19.72)"/><path class="cls-18" d="M136.79,252.77c-1.1-1.88-2.52-3.8-4.62-4.35a5.06,5.06,0,0,0-5.65,2.86,5.82,5.82,0,0,0,1.34,6.34,6.89,6.89,0,0,0,6.39,1.61,10.63,10.63,0,0,0-3.14,4.48,5.84,5.84,0,0,0-.22,3.84c.91,2.62,4.54,3.51,7,2.19s3.7-4.18,3.93-6.94c1.17,3.13,4.91,5.63,7.88,4.09,2.27-1.18,3-4.31,2.09-6.69a9,9,0,0,0-5.67-4.83,5.84,5.84,0,0,0,6.66-4.4,5.51,5.51,0,0,0-4.73-6.29,5.2,5.2,0,0,0-5.36,5.59,17.33,17.33,0,0,0,0-5.88,7.85,7.85,0,0,0-1.46-3.62,3.83,3.83,0,0,0-3.46-1.51c-2.26.37-3.28,3-3.5,5.32a21,21,0,0,0,.95,8.45" transform="translate(6.79 19.72)"/><path class="cls-11" d="M138.17,252.51a5.79,5.79,0,0,0-1.5,2.91,3.2,3.2,0,0,0,2.81,3.27,3.78,3.78,0,0,0,3.76-2.38,3.6,3.6,0,0,0-.89-4,2.85,2.85,0,0,0-3.9.25" transform="translate(6.79 19.72)"/><path class="cls-18" d="M35.1,266.58c-1.09-1.88-2.51-3.8-4.62-4.34a5,5,0,0,0-5.65,2.85,5.84,5.84,0,0,0,1.34,6.34,6.91,6.91,0,0,0,6.4,1.61,10.54,10.54,0,0,0-3.14,4.48,5.78,5.78,0,0,0-.23,3.84c.91,2.62,4.54,3.51,7,2.19s3.7-4.18,3.94-6.94c1.16,3.13,4.9,5.63,7.87,4.09,2.28-1.18,3-4.31,2.09-6.69a9,9,0,0,0-5.67-4.83,5.84,5.84,0,0,0,6.66-4.4,5.5,5.5,0,0,0-4.72-6.29A5.21,5.21,0,0,0,41,264.08a17.08,17.08,0,0,0,0-5.88,7.85,7.85,0,0,0-1.46-3.62A3.86,3.86,0,0,0,36,253.07c-2.26.38-3.28,3-3.49,5.32a20.86,20.86,0,0,0,.94,8.45" transform="translate(6.79 19.72)"/><path class="cls-11" d="M36.48,266.32A5.77,5.77,0,0,0,35,269.23a3.2,3.2,0,0,0,2.81,3.27,3.77,3.77,0,0,0,3.75-2.38,3.59,3.59,0,0,0-.88-4,2.86,2.86,0,0,0-3.91.25" transform="translate(6.79 19.72)"/><path class="cls-18" d="M275.42,346.86c-1.1-1.88-2.52-3.8-4.62-4.34a5,5,0,0,0-5.65,2.85,5.82,5.82,0,0,0,1.34,6.34,6.89,6.89,0,0,0,6.39,1.61,10.66,10.66,0,0,0-3.14,4.49,5.81,5.81,0,0,0-.22,3.83c.91,2.62,4.54,3.51,7,2.19s3.7-4.18,3.93-6.94c1.17,3.14,4.91,5.63,7.88,4.09,2.27-1.18,3-4.31,2.09-6.69a9.07,9.07,0,0,0-5.67-4.83,5.84,5.84,0,0,0,6.66-4.4,5.52,5.52,0,0,0-4.73-6.29,5.21,5.21,0,0,0-5.36,5.59,17.27,17.27,0,0,0,0-5.87,7.84,7.84,0,0,0-1.46-3.63,3.83,3.83,0,0,0-3.46-1.5c-2.26.37-3.29,3-3.5,5.31a21.09,21.09,0,0,0,1,8.46" transform="translate(6.79 19.72)"/><path class="cls-11" d="M276.8,346.6a5.79,5.79,0,0,0-1.5,2.91,3.2,3.2,0,0,0,2.81,3.27,3.78,3.78,0,0,0,3.76-2.38,3.6,3.6,0,0,0-.89-4,2.86,2.86,0,0,0-3.9.25" transform="translate(6.79 19.72)"/><path class="cls-18" d="M248.29,215.91c-.51,2.11-.83,4.48.31,6.33a5.05,5.05,0,0,0,6.05,1.87,5.81,5.81,0,0,0,3.43-5.5A6.88,6.88,0,0,0,254.6,213,10.61,10.61,0,0,0,260,212a5.83,5.83,0,0,0,2.83-2.6c1.16-2.52-.84-5.68-3.51-6.42s-5.57.44-7.65,2.27c1.33-3.07.38-7.46-2.83-8.42-2.46-.73-5.18,1-6.15,3.37a9,9,0,0,0,.73,7.41,5.84,5.84,0,0,0-7.85-1.45,5.5,5.5,0,0,0-1,7.8,5.21,5.21,0,0,0,7.74-.29,17,17,0,0,0-4,4.25,7.89,7.89,0,0,0-1.46,3.63,3.84,3.84,0,0,0,1.44,3.48c1.89,1.3,4.48.09,6.21-1.4a20.81,20.81,0,0,0,5.18-6.74" transform="translate(6.79 19.72)"/><path class="cls-11" d="M247.11,215.13a5.82,5.82,0,0,0,3.1-1,3.21,3.21,0,0,0,.25-4.31,3.78,3.78,0,0,0-4.36-.89,3.59,3.59,0,0,0-2.12,3.48,2.86,2.86,0,0,0,3,2.53" transform="translate(6.79 19.72)"/><path class="cls-19" d="M150.91,190.65a12.26,12.26,0,0,1,1.27,6.86,7,7,0,0,1-1.29,3.58,3.84,3.84,0,0,1-3.33,1.57,4,4,0,0,1-3.23-3.3,9,9,0,0,1,.63-4.84,9.1,9.1,0,0,1,1.95-3.42,4.11,4.11,0,0,1,3.58-1.29" transform="translate(6.79 19.72)"/><path class="cls-19" d="M152.34,183a10,10,0,0,1-9.06,3,2,2,0,0,1-1.17-.54,1.74,1.74,0,0,1-.36-.91,4.57,4.57,0,0,1,2.94-4.46,11.25,11.25,0,0,1,5.65-.47c1.41.16,3.15.71,3.3,2.12" transform="translate(6.79 19.72)"/><path class="cls-19" d="M154,184.13a13.16,13.16,0,0,0,1.68,6.22,3.6,3.6,0,0,0,2.4,2.07c1.67.23,2.93-1.64,3.06-3.32a6.39,6.39,0,0,0-7.25-6.82" transform="translate(6.79 19.72)"/><path class="cls-19" d="M145.72,172.92c2.37-5,4.79-10.09,8.55-14.22.43-.48-.28-1.19-.71-.71-3.82,4.2-6.3,9.34-8.71,14.42-.27.58.59,1.09.87.51Z" transform="translate(6.79 19.72)"/><path class="cls-19" d="M91.62,252.76a12.35,12.35,0,0,1,7,.36,7.1,7.1,0,0,1,3.19,2.09,3.85,3.85,0,0,1,.76,3.6,4.06,4.06,0,0,1-4,2.38A9,9,0,0,1,94,259.45a9.2,9.2,0,0,1-2.87-2.68,4.11,4.11,0,0,1-.43-3.79" transform="translate(6.79 19.72)"/><path class="cls-19" d="M84.55,249.61a10,10,0,0,1,.78,9.5,2.08,2.08,0,0,1-.8,1,1.62,1.62,0,0,1-1,.14,4.56,4.56,0,0,1-3.66-3.89,11.31,11.31,0,0,1,.85-5.6c.48-1.34,1.42-2.91,2.83-2.73" transform="translate(6.79 19.72)"/><path class="cls-19" d="M86,248.21a13.13,13.13,0,0,0,6.44-.19A3.65,3.65,0,0,0,95,246.17c.6-1.58-.92-3.23-2.53-3.75a6.4,6.4,0,0,0-8.31,5.47" transform="translate(6.79 19.72)"/><path class="cls-19" d="M90.87,252.93c-4.32-3.46-8.71-7-11.86-11.61-.36-.53-1.23,0-.86.51,3.2,4.69,7.62,8.29,12,11.81.5.4,1.21-.3.71-.71Z" transform="translate(6.79 19.72)"/><path class="cls-19" d="M76.51,303.15a12.21,12.21,0,0,1-1.37-6.84,7.17,7.17,0,0,1,1.24-3.6,3.84,3.84,0,0,1,3.31-1.62A4.05,4.05,0,0,1,83,294.35a11.38,11.38,0,0,1-2.46,8.29A4.09,4.09,0,0,1,76.94,304" transform="translate(6.79 19.72)"/><path class="cls-19" d="M75.18,310.78a10,10,0,0,1,9-3.08,2,2,0,0,1,1.18.53,1.64,1.64,0,0,1,.37.9,4.56,4.56,0,0,1-2.87,4.5,11.22,11.22,0,0,1-5.64.55c-1.42-.13-3.17-.66-3.34-2.07" transform="translate(6.79 19.72)"/><path class="cls-19" d="M73.47,309.72a13.14,13.14,0,0,0-1.76-6.2,3.61,3.61,0,0,0-2.43-2c-1.68-.21-2.91,1.67-3,3.36a6.38,6.38,0,0,0,7.33,6.71" transform="translate(6.79 19.72)"/><path class="cls-19" d="M76.85,303.85c-2.3,5-4.64,10.16-8.34,14.34-.43.48.28,1.19.71.71,3.75-4.26,6.16-9.43,8.5-14.55.26-.58-.6-1.09-.87-.5Z" transform="translate(6.79 19.72)"/><path class="cls-19" d="M252.84,314.87a12.18,12.18,0,0,1,7,.36,7,7,0,0,1,3.18,2.08,3.85,3.85,0,0,1,.76,3.61,4.06,4.06,0,0,1-4,2.37,9,9,0,0,1-4.55-1.73,9.27,9.27,0,0,1-2.88-2.69,4.14,4.14,0,0,1-.43-3.79" transform="translate(6.79 19.72)"/><path class="cls-19" d="M245.77,311.71a10,10,0,0,1,.77,9.5,2,2,0,0,1-.8,1,1.61,1.61,0,0,1-1,.14,4.54,4.54,0,0,1-3.65-3.89,11.09,11.09,0,0,1,.85-5.6c.47-1.34,1.42-2.91,2.83-2.72" transform="translate(6.79 19.72)"/><path class="cls-19" d="M247.22,310.31a13.13,13.13,0,0,0,6.44-.19,3.65,3.65,0,0,0,2.57-1.85c.61-1.58-.92-3.23-2.52-3.75A6.39,6.39,0,0,0,245.4,310" transform="translate(6.79 19.72)"/><path class="cls-19" d="M252.08,315c-4.32-3.46-8.71-7-11.86-11.61-.36-.52-1.23,0-.86.51,3.2,4.69,7.62,8.29,12,11.81.5.4,1.21-.3.71-.71Z" transform="translate(6.79 19.72)"/><path class="cls-19" d="M222.48,256.17a12.24,12.24,0,0,1,4.66,5.19,7,7,0,0,1,.77,3.73,3.85,3.85,0,0,1-2,3.08,4,4,0,0,1-4.47-1.14,11.38,11.38,0,0,1-2.11-8.39,4.09,4.09,0,0,1,2.38-3" transform="translate(6.79 19.72)"/><path class="cls-19" d="M219.73,248.93a10,10,0,0,1-6.19,7.24,2,2,0,0,1-1.28.15,1.68,1.68,0,0,1-.78-.59,4.56,4.56,0,0,1,.18-5.33,11.13,11.13,0,0,1,4.57-3.35c1.29-.6,3.06-1,3.93.09" transform="translate(6.79 19.72)"/><path class="cls-19" d="M221.75,249a13.24,13.24,0,0,0,4.67,4.44,3.66,3.66,0,0,0,3.13.51c1.55-.68,1.65-2.93.88-4.43a6.39,6.39,0,0,0-9.74-2" transform="translate(6.79 19.72)"/><path class="cls-19" d="M221.83,255.75c-.59-5.5-1.18-11.11-.13-16.59.12-.63-.84-.9-1-.27-1.07,5.58-.51,11.26.09,16.86.06.63,1.07.64,1,0Z" transform="translate(6.79 19.72)"/><path class="cls-19" d="M282.16,237a12.33,12.33,0,0,1-6.69,2,7.09,7.09,0,0,1-3.7-.89,3.85,3.85,0,0,1-1.93-3.14,4,4,0,0,1,2.93-3.57,11.39,11.39,0,0,1,8.49,1.65,4.1,4.1,0,0,1,1.68,3.42" transform="translate(6.79 19.72)"/><path class="cls-19" d="M289.88,237.55a10,10,0,0,1-3.94-8.69,2.1,2.1,0,0,1,.41-1.22,1.79,1.79,0,0,1,.87-.46,4.56,4.56,0,0,1,4.75,2.43,11.12,11.12,0,0,1,1.09,5.56c0,1.43-.35,3.22-1.74,3.52" transform="translate(6.79 19.72)"/><path class="cls-19" d="M289,239.35a13.37,13.37,0,0,0-6,2.35,3.64,3.64,0,0,0-1.79,2.62c0,1.69,1.95,2.73,3.64,2.67a6.39,6.39,0,0,0,6-8" transform="translate(6.79 19.72)"/><path class="cls-19" d="M282.89,236.58c5.24,1.81,10.54,3.66,15.07,6.95.52.37,1-.49.51-.87-4.6-3.33-10-5.21-15.31-7-.61-.21-.87.76-.27,1Z" transform="translate(6.79 19.72)"/><path class="cls-20" d="M165.18,225.29a10.19,10.19,0,0,0,1.52,10.56,12.42,12.42,0,0,0,10,4.25,8.64,8.64,0,0,0,4.85-1.51,9.27,9.27,0,0,0,2.34-2.79c2-3.27,2.89-7.41,1.46-10.94a4.22,4.22,0,0,0-2-2.38c-1.56-.67-3.44.34-4.31,1.8a10.61,10.61,0,0,0-1.1,4.93,6.23,6.23,0,0,0-3-6.83,2.19,2.19,0,0,0-1.38-.34c-1,.16-1.5,1.35-1.69,2.38a16.7,16.7,0,0,0-.15,4.89c-.34-1.68-.74-3.46-2-4.65a3.27,3.27,0,0,0-3.55-.79,2.22,2.22,0,0,0-.91,3.22" transform="translate(6.79 19.72)"/><path class="cls-19" d="M177,244.64a15.45,15.45,0,0,1,10.6-5.82,2.75,2.75,0,0,1,1.48.17,2,2,0,0,1,.94,2,4.29,4.29,0,0,1-1,2.08,11,11,0,0,1-7.29,4.14c-1.78.21-4-.31-4.53-2" transform="translate(6.79 19.72)"/><path class="cls-20" d="M50.15,204.49A10.15,10.15,0,0,0,51.66,215a12.4,12.4,0,0,0,10,4.26,8.62,8.62,0,0,0,4.85-1.51A9.39,9.39,0,0,0,68.84,215c2-3.28,2.89-7.41,1.46-10.94a4.21,4.21,0,0,0-2-2.38c-1.56-.68-3.44.33-4.32,1.79a10.77,10.77,0,0,0-1.1,4.94,6.23,6.23,0,0,0-3-6.83,2.13,2.13,0,0,0-1.38-.34c-1,.16-1.5,1.35-1.68,2.37a17.13,17.13,0,0,0-.16,4.9c-.34-1.68-.74-3.46-2-4.65a3.28,3.28,0,0,0-3.54-.8,2.23,2.23,0,0,0-.92,3.23" transform="translate(6.79 19.72)"/><path class="cls-19" d="M62,223.84A15.42,15.42,0,0,1,72.56,218a2.9,2.9,0,0,1,1.49.16,2,2,0,0,1,.93,2,4.2,4.2,0,0,1-1,2.08,10.92,10.92,0,0,1-7.28,4.14c-1.79.21-4-.32-4.54-2" transform="translate(6.79 19.72)"/><path class="cls-20" d="M209.48,339.35A10.17,10.17,0,0,0,211,349.91a12.43,12.43,0,0,0,10,4.26,8.63,8.63,0,0,0,4.85-1.52,9.23,9.23,0,0,0,2.34-2.78c2-3.28,2.89-7.41,1.46-10.95a4.19,4.19,0,0,0-2-2.37c-1.56-.68-3.44.33-4.32,1.79a10.73,10.73,0,0,0-1.1,4.93,6.23,6.23,0,0,0-3-6.83,2.26,2.26,0,0,0-1.38-.34c-1,.16-1.5,1.36-1.68,2.38a17.06,17.06,0,0,0-.16,4.89c-.34-1.67-.74-3.45-2-4.64a3.28,3.28,0,0,0-3.54-.8,2.22,2.22,0,0,0-.92,3.22" transform="translate(6.79 19.72)"/><path class="cls-19" d="M221.29,358.7a15.44,15.44,0,0,1,10.6-5.81,2.7,2.7,0,0,1,1.49.16,2,2,0,0,1,.93,2,4.16,4.16,0,0,1-1,2.08,10.84,10.84,0,0,1-7.28,4.14c-1.79.21-4-.31-4.54-2" transform="translate(6.79 19.72)"/><path class="cls-20" d="M255.6,286.39a10.2,10.2,0,0,0,10.65-.44,12.44,12.44,0,0,0,5.25-9.51,8.56,8.56,0,0,0-1-5,9.24,9.24,0,0,0-2.53-2.61c-3.06-2.28-7.08-3.63-10.74-2.55a4.14,4.14,0,0,0-2.57,1.76c-.83,1.48,0,3.45,1.35,4.47a10.73,10.73,0,0,0,4.79,1.6,6.22,6.22,0,0,0-7.09,2.26,2.28,2.28,0,0,0-.48,1.34c.06,1,1.2,1.63,2.2,1.91a16.89,16.89,0,0,0,4.85.65c-1.7.17-3.51.39-4.82,1.49a3.29,3.29,0,0,0-1.15,3.45,2.22,2.22,0,0,0,3.11,1.24" transform="translate(6.79 19.72)"/><path class="cls-19" d="M276,276.59a15.44,15.44,0,0,1-4.71-11.13,2.83,2.83,0,0,1,.31-1.47,2,2,0,0,1,2.06-.73,4.18,4.18,0,0,1,2,1.18,10.87,10.87,0,0,1,3.38,7.66c0,1.8-.71,3.93-2.47,4.31" transform="translate(6.79 19.72)"/><path class="cls-20" d="M139.06,291.62a10.19,10.19,0,0,0-10.43,2.26,12.46,12.46,0,0,0-3.53,10.27,8.59,8.59,0,0,0,1.86,4.73A9.47,9.47,0,0,0,129.9,311c3.41,1.71,7.6,2.35,11,.67a4.14,4.14,0,0,0,2.23-2.18c.56-1.6-.58-3.41-2.1-4.18a10.76,10.76,0,0,0-5-.74,6.25,6.25,0,0,0,6.6-3.45,2.22,2.22,0,0,0,.24-1.4c-.24-1-1.46-1.4-2.49-1.51a16.77,16.77,0,0,0-4.9.19c1.65-.46,3.4-1,4.5-2.29a3.31,3.31,0,0,0,.54-3.6,2.22,2.22,0,0,0-3.28-.68" transform="translate(6.79 19.72)"/><path class="cls-19" d="M120.6,304.78a15.41,15.41,0,0,1,6.55,10.16,2.69,2.69,0,0,1-.05,1.49,2,2,0,0,1-1.9,1.08,4.28,4.28,0,0,1-2.15-.82,10.9,10.9,0,0,1-4.64-7c-.34-1.77,0-4,1.69-4.67" transform="translate(6.79 19.72)"/></g><path class="cls-21" d="M184.64,234.44a203,203,0,0,1-32.91,45c-1.79,1.85,1,4.68,2.83,2.82a207.11,207.11,0,0,0,33.54-45.78c1.22-2.27-2.24-4.29-3.46-2Z" transform="translate(6.79 19.72)"/><path class="cls-21" d="M195,326.77a103.74,103.74,0,0,0,58.46-28.17,100.72,100.72,0,0,0,12.18-14.22,2,2,0,0,0-.71-2.73,2,2,0,0,0-2.74.71,99.14,99.14,0,0,1-49.95,36.49A95.88,95.88,0,0,1,195,322.77a2.07,2.07,0,0,0-2,2,2,2,0,0,0,2,2Z" transform="translate(6.79 19.72)"/><path class="cls-21" d="M65.18,273A48.47,48.47,0,0,0,103.84,289c2.56-.16,2.58-4.16,0-4A44.64,44.64,0,0,1,68,270.2c-1.72-1.93-4.54.91-2.83,2.83Z" transform="translate(6.79 19.72)"/></g></g></svg>